<?xml version="1.0" standalone="no"?>
<!DOCTYPE svg PUBLIC "-//W3C//DTD SVG 1.1//EN" "http://www.w3.org/Graphics/SVG/1.1/DTD/svg11.dtd" >
<svg xmlns="http://www.w3.org/2000/svg">
<metadata>
Created by FontForge 20120731 at Mon Feb 20 15:06:16 2017
 By admin
</metadata>
<defs>
<font id="iconfont" horiz-adv-x="1024" >
  <font-face 
    font-family="iconfont"
    font-weight="500"
    font-stretch="normal"
    units-per-em="1024"
    panose-1="2 0 6 3 0 0 0 0 0 0"
    ascent="896"
    descent="-128"
    x-height="792"
    bbox="0 -211 1024 896"
    underline-thickness="0"
    underline-position="0"
    unicode-range="U+0078-E877"
  />
<missing-glyph 
 />
    <glyph glyph-name=".notdef" 
 />
    <glyph glyph-name=".notdef" 
 />
    <glyph glyph-name=".null" horiz-adv-x="0" 
 />
    <glyph glyph-name="nonmarkingreturn" horiz-adv-x="341" 
 />
    <glyph glyph-name="x" unicode="x" horiz-adv-x="1001" 
d="M281 543q-27 -1 -53 -1h-83q-18 0 -36.5 -6t-32.5 -18.5t-23 -32t-9 -45.5v-76h912v41q0 16 -0.5 30t-0.5 18q0 13 -5 29t-17 29.5t-31.5 22.5t-49.5 9h-133v-97h-438v97zM955 310v-52q0 -23 0.5 -52t0.5 -58t-10.5 -47.5t-26 -30t-33 -16t-31.5 -4.5q-14 -1 -29.5 -0.5
t-29.5 0.5h-32l-45 128h-439l-44 -128h-29h-34q-20 0 -45 1q-25 0 -41 9.5t-25.5 23t-13.5 29.5t-4 30v167h911zM163 247q-12 0 -21 -8.5t-9 -21.5t9 -21.5t21 -8.5q13 0 22 8.5t9 21.5t-9 21.5t-22 8.5zM316 123q-8 -26 -14 -48q-5 -19 -10.5 -37t-7.5 -25t-3 -15t1 -14.5
t9.5 -10.5t21.5 -4h37h67h81h80h64h36q23 0 34 12t2 38q-5 13 -9.5 30.5t-9.5 34.5q-5 19 -11 39h-368zM336 498v228q0 11 2.5 23t10 21.5t20.5 15.5t34 6h188q31 0 51.5 -14.5t20.5 -52.5v-227h-327z" />
    <glyph glyph-name="shijian" unicode="&#xe620;" 
d="M511.5 684q-104.5 0 -192.5 -51t-139.5 -139.5t-51.5 -193t51.5 -193t139.5 -139.5t192.5 -51t193 51t139.5 139.5t51 193t-51 193t-139.5 139.5t-193 51zM511.5 -48q-94.5 0 -175 46.5t-127 127t-46.5 175t46.5 175t127 127t175 46.5t175 -46.5t127.5 -127t47 -175
t-47 -175t-127.5 -127t-175 -46.5zM704 301h-175v226q0 8 -5 13t-12.5 5t-12.5 -5t-5 -13v-244q0 -7 5 -12t13 -5h192q7 0 12 5t5 12t-5 12.5t-12 5.5z" />
    <glyph glyph-name="circularframeshijian" unicode="&#xe673;" 
d="M512 780q-98 0 -186.5 -38t-153 -102.5t-102.5 -153t-38 -186.5t38 -186.5t102.5 -153t153 -102.5t186.5 -38t186.5 38t153 102.5t102.5 153t38 186.5t-38 186.5t-102.5 153t-153 102.5t-186.5 38zM674.5 137.5q-17.5 -17.5 -42.5 -17.5t-42 18l-120 120q-18 17 -18 42
v240q0 25 17.5 42.5t42.5 17.5t42.5 -17.5t17.5 -42.5v-215l103 -103q17 -17 17 -42t-17.5 -42.5z" />
    <glyph glyph-name="yuyue" unicode="&#xe743;" 
d="M512 810q-104 0 -198.5 -40.5t-163 -108.5t-108.5 -162.5t-40 -198.5t40 -198.5t108.5 -162.5t163 -108.5t198.5 -40.5t198.5 40.5t162.5 108.5t108.5 162.5t40.5 198.5t-40.5 198.5t-108.5 162.5t-162.5 108.5t-198.5 40.5v0zM512 -83q-104 0 -192 51.5t-139.5 139.5
t-51.5 192t51.5 192t139.5 139.5t192 51.5t192 -51.5t139.5 -139.5t51.5 -192t-51.5 -192t-139.5 -139.5t-192 -51.5v0zM703 364h-127v127q0 27 -19 45.5t-45 18.5t-45 -18.5t-19 -45.5v-191q0 -26 19 -45t45 -19h191q27 0 45.5 19t18.5 45t-18.5 45t-45.5 19v0zM703 364z
" />
    <glyph glyph-name="xiaolian" unicode="&#xe64f;" 
d="M511 -143q-89 0 -171 33.5t-145 96.5t-97 144t-34 170t34 170t97.5 144t145 96.5t171 33.5t171 -33.5t144.5 -96.5q86 -85 116 -199.5t0 -229t-116 -199.5q-63 -63 -145 -96.5t-171 -33.5v0v0v0v0zM511 687q-78 0 -149 -29.5t-126 -84t-84 -125t-29 -147.5t29 -147.5
t84 -125.5t126 -84t149 -29t149 29t126 84q74 74 100.5 173.5t0 199t-100.5 173.5q-55 54 -126 83.5t-149 29.5v0v0v0v0zM352 180q3 -4 7 -9.5t18.5 -19.5t31.5 -25t44.5 -20t57.5 -9t59 8.5t49 20.5t36 24.5t24 20.5t8 9q2 0 4.5 -0.5t9.5 -2.5t12 -6t9 -12.5t4 -20.5
q-2 -4 -7.5 -10.5t-25.5 -23t-42.5 -29.5t-60.5 -23.5t-79 -10.5t-76.5 10t-56 24.5t-35.5 28.5t-21 24l-6 10v5t2 10t5.5 12.5t11 10t17.5 4.5v0v0v0zM381 444q-22 0 -38 -16t-16 -38.5t16 -38.5t38.5 -16t38.5 16t16 38.5t-16 38.5t-39 16v0v0v0v0zM661 444q-22 0 -38 -16
t-16 -38.5t16 -38.5t38.5 -16t38.5 16t16 38.5t-16 38.5t-39 16v0v0v0v0zM661 444z" />
    <glyph glyph-name="chazhao" unicode="&#xe67d;" 
d="M998 -47l-200 200q100 121 100 278q0 89 -34.5 169.5t-92.5 139t-138.5 93t-169 34.5t-169.5 -34.5t-139 -93t-92.5 -139t-34.5 -169t34.5 -169t92.5 -139t139 -93t169 -34.5q84 0 159.5 30t134.5 84l199 -199q9 -9 21 -9t21 9v0q9 9 9 21t-9 21v0zM463 53
q-103 0 -190.5 50.5t-138 138t-50.5 190t50.5 190t138 138t190.5 50.5t190 -50.5t137.5 -138t50.5 -190t-50.5 -190t-137.5 -138t-190 -50.5z" />
    <glyph glyph-name="bianji" unicode="&#xe609;" 
d="M320 348q-1 -1 -1 -2l-52 -188q-4 -18 9 -31q9 -9 22 -9q4 0 8 1l187 51v-0.5t1 -0.5q3 0 5 3l499 498q23 23 23 57q0 39 -29 68l-47 47q-29 29 -69 29q-34 0 -57 -22l-498 -499l-0.5 -0.5t-0.5 -1.5zM949 719l-50 -50l-80 82l49 49q6 6 15.5 5t16.5 -8l47 -47
q7 -7 7 -18q0 -8 -5 -13zM409 341l360 359l80 -81l-359 -359zM343 195l26 95l70 -69zM980.5 521q-14.5 0 -24.5 -10t-10 -24v-465q0 -18 -13 -31t-31 -13h-786q-18 0 -31 13t-13 31v759q0 18 13 31t31 13h506q14 0 24.5 10t10.5 24t-10.5 24.5t-24.5 10.5h-511
q-45 0 -76.5 -32t-31.5 -76v-769q0 -45 31.5 -76.5t76.5 -31.5h796q45 0 76.5 31.5t31.5 76.5v470q0 14 -10 24t-24.5 10z" />
    <glyph glyph-name="kefu1" unicode="&#xe636;" 
d="M882 358q0 100 -49.5 185.5t-134.5 135t-186 49.5t-186 -49.5t-134.5 -135t-49.5 -185.5q0 -99 48 -183.5t130.5 -134.5t181.5 -53l-24 -115l249 184v0q72 52 113.5 131t41.5 171zM521 128h-13q-126 5 -212 99l17 29q80 -87 196.5 -91.5t202.5 74.5l16 -31
q-88 -80 -207 -80z" />
    <glyph glyph-name="xuanzhong" unicode="&#xe627;" 
d="M512 890q-100 0 -192 -39.5t-158 -105.5t-105.5 -157.5t-39.5 -192t39.5 -192t105.5 -158t158 -105.5t192 -39t192 39t158 105.5t105.5 158t39.5 192t-39.5 192t-105.5 157.5t-158 105.5t-192 39.5zM751 477l-284 -287l-1 -1v0q-2 -1 -8 -5l-1.5 -1l-1.5 -1q-7 -3 -14 -3
t-13 3q-1 0 -2 1t-2 1q-6 4 -8 5v1v0l-140 143q-10 11 -10 25.5t10.5 25t25.5 10.5t25 -11l115 -118l258 262q11 10 25.5 10t25 -10t10.5 -25t-10 -25z" />
    <glyph glyph-name="dianhua" unicode="&#xe6a9;" 
d="M512 837q-92 0 -176 -36t-144.5 -96.5t-96.5 -144.5t-36 -176t36 -176t96.5 -144.5t144.5 -96.5t176 -36t176 36t144.5 96.5t96.5 144.5t36 176t-36 176t-96.5 144.5t-144.5 96.5t-176 36zM512 -31q-113 0 -208.5 55.5t-151 151t-55.5 208.5t55.5 208.5t151 151
t208.5 55.5t208.5 -55.5t151 -151t55.5 -208.5t-55.5 -208.5t-151 -151t-208.5 -55.5zM661 629q-3 1 -14.5 7t-16 8t-15 6t-16 4t-15 -1.5t-15.5 -7.5t-13 -16t-12 -25q-10 -27 -12 -45.5t5.5 -30t15 -17t24.5 -13.5q4 -2 7 -4q32 -16 -28 -137q-26 -53 -50 -83.5t-42 -21.5
q-2 1 -6 4q-17 8 -26 11t-22.5 2.5t-27 -13.5t-28.5 -37q-9 -14 -12.5 -25.5t-4.5 -20t3 -16.5t7.5 -13t12.5 -11t14 -8.5l16 -8t14 -7.5q36 -18 106 39.5t125 168.5q37 75 50.5 145t5.5 112.5t-30 54.5z" />
    <glyph glyph-name="shanchu" unicode="&#xe648;" 
d="M423 -31v501q0 14 -9.5 26t-14.5 12q-15 0 -26 -11t-11 -27v-501q0 -29 37 -29q2 0 7 4t11 11t6 14v0zM362 751h301q13 0 20 1t13 6t6 15q0 16 -11 27t-27 11h-302q-16 0 -27 -11t-11 -27q0 -14 9.5 -18t28.5 -4v0zM853 546q-30 0 -30 -36v-541q0 -25 -1 -40.5
t-5.5 -32.5t-13 -26t-23.5 -15t-37 -6h-441q-58 0 -79 23t-21 77v541q0 20 -7.5 38t-21.5 18t-22.5 -18.5t-8.5 -37.5v-140v-481q0 -33 19 -56.5t50 -23.5h604q30 0 49.5 23.5t19.5 56.5v501v140q0 36 -31 36v0zM964 691h-902q-17 0 -28.5 -8t-11.5 -23t14 -23t31 -8h891
q18 0 32 8t14 23t-11.5 23t-28.5 8v0zM663 -31v501q0 16 -10.5 27t-26.5 11q-7 0 -15 -11.5t-8 -26.5v-501q0 -11 22 -26q4 -3 1 -3q37 0 37 29v0zM663 -31z" />
    <glyph glyph-name="lnicon19" unicode="&#xe617;" 
d="M548 629h-73v-208h-208v-74h208v-208h73v208h209v74h-209v208zM512 877q-100 0 -191.5 -39t-157.5 -105t-105 -157.5t-39 -191.5t39 -191.5t105 -157.5t157.5 -105t191.5 -39t191.5 39t157.5 105t105 157.5t39 191.5t-39 191.5t-105 157.5t-157.5 105t-191.5 39zM512 -33
q-113 0 -209 56t-152 152t-56 209t56 209t152 152t209 56t209 -56t152 -152t56 -209t-56 -209t-152 -152t-209 -56z" />
    <glyph glyph-name="daizhifu" unicode="&#xe710;" 
d="M446 85q0 8 0.5 14t0.5 14h-177q-25 0 -43 18t-18 43t18 42t43 17h221q30 48 78 80q47 31 105 41h-404q-25 0 -43 17.5t-18 42.5t18 42.5t43 17.5h421q25 0 43 -17.5t18 -42.5q0 -19 -11 -34q-11 -16 -29 -22h7q44 0 82 -13q39 -13 72 -35v341q0 26 -11 49.5t-28.5 39.5
t-38.5 26q-22 10 -44 10h-60v-121h-421v121h-68q-22 0 -42.5 -12t-35.5 -31q-16 -18 -25 -40q-10 -22 -10 -42v-596q0 -24 13 -46q12 -23 31 -40q18 -17 40 -28q22 -10 40 -10h282q-24 32 -36 71q-13 40 -13 83zM631 836h-60q0 25 -17.5 42.5t-42.5 17.5h-61
q-25 0 -42.5 -17.5t-17.5 -42.5h-60v-120h301v120v0zM507.5 781q-11.5 -11 -26.5 -11q-16 0 -27 11t-11 26q0 17 11 27.5t27 10.5t27 -10.5t11 -27.5q0 -15 -11.5 -26zM918 166q-17 38 -46 67t-67.5 46t-81.5 17q-44 0 -82.5 -17t-67.5 -46t-46 -67.5t-17 -81.5
q0 -44 17 -83t46 -67.5t67 -45.5q39 -16 83 -16q43 0 81.5 16.5t67.5 45t46 67.5t17 83t-17 82zM861 49.5q-11 -11.5 -27 -11.5h-116q-16 0 -27 11.5t-11 27.5v154q0 16 11 27t27 11t27.5 -11t11.5 -27v-116h77q16 0 27 -11t11 -27t-11 -27.5z" />
    <glyph glyph-name="wode" unicode="&#xe809;" 
d="M160 -32q-18 0 -27 15q-7 11 -4 24t14 20q18 11 43.5 25.5t88 39t108.5 26.5h1v18q-91 37 -145.5 124.5t-54.5 195.5q0 93 43.5 172.5t118.5 125.5t163.5 46t163.5 -46t118.5 -125.5t43.5 -172.5q0 -108 -53 -194t-142 -124v-21q100 -9 240 -89q12 -7 15 -20t-4 -24.5
t-19.5 -14.5t-24.5 4q-131 75 -214 81h-25q-14 0 -23 9.5t-9 22.5v74q0 23 21 30q79 27 126.5 99.5t47.5 167.5q0 115 -76.5 197t-184.5 82t-185 -82t-77 -198q0 -94 49 -168t129 -99q22 -8 22 -31v-72q0 -13 -9.5 -22.5t-22.5 -9.5h-31q-38 -2 -91.5 -23.5t-81.5 -37
t-35 -20.5q-8 -5 -17 -5v0z" />
    <glyph glyph-name="fahuo" unicode="&#xe877;" 
d="M259 223q-46 0 -79 -32.5t-33 -78.5t33 -79t79 -33t79 33t33 79t-33 78.5t-79 32.5v0zM723 223q-46 0 -78.5 -32.5t-32.5 -78.5t32.5 -79t79 -33t79 33t32.5 79t-32.5 78.5t-79.5 32.5v0zM946 389l-4 7q-1 4 -6 13l-88 186l-27 68h-145v49q0 23 -15 39.5t-37 16.5h-397
q-4 0 -9 -2h-16q-17 0 -29.5 -12t-12.5 -29v-62v-20v-145h-82v-2v-272q0 -31 27 -47q20 43 60.5 69t89.5 26q52 0 93.5 -28.5t60.5 -74.5h159q19 46 60.5 74t92.5 28t92.5 -28t59.5 -74h17q23 0 38.5 16t15.5 38v103v15v39v8l2 1v0zM676 434v149h92l47 -149h-139v0z" />
    <glyph glyph-name="tubiao225" unicode="&#xe614;" 
d="M512 -96q-130 0 -240.5 64.5t-175 175t-64.5 240.5t64.5 240.5t175 175t240.5 64.5t240.5 -64.5t175 -175t64.5 -240.5t-64.5 -240.5t-175 -175t-240.5 -64.5zM760 424h-208v208q0 12 -10.5 22t-25.5 10h-12q-12 0 -22 -10t-10 -22v-208h-208q-12 0 -22 -10.5t-10 -25.5
v-12q0 -12 10 -22t22 -10h208v-208q0 -15 10.5 -23.5t25.5 -8.5h12q15 0 25.5 10t10.5 22v208h208q15 0 23.5 10.5t8.5 25.5v12q-3 12 -13.5 22t-22.5 10z" />
    <glyph glyph-name="jian" unicode="&#xe61a;" 
d="M512 862q-97 0 -185.5 -38t-152.5 -102t-102 -152.5t-38 -185.5t38 -185.5t102 -152.5t152.5 -101.5t185.5 -37.5t185.5 37.5t152.5 101.5t101.5 152.5t37.5 185.5t-37.5 185.5t-101.5 152.5t-152.5 102t-185.5 38zM512 -28q-112 0 -207 55t-150.5 150t-55.5 207
t55.5 207t150.5 150.5t207 55.5t207 -55.5t150 -150.5t55 -207t-55 -207t-150 -150t-207 -55zM278 417h467v-65h-467v65z" />
    <glyph glyph-name="dingwei" unicode="&#xe6e6;" 
d="M488.5 780q125.5 0 214 -88.5t88.5 -214.5q0 -68 -82.5 -198.5t-219.5 -280.5q-139 152 -221 281.5t-82 197.5q0 126 88.5 214.5t214 88.5zM489 849q-101 0 -187 -49.5t-136 -135t-50 -187.5q0 -47 27 -111t64.5 -122.5t88 -124t86.5 -107t72 -79.5q16 -17 35 -17
q22 0 35 17q35 38 71 79.5t87 107t88 124t64 122.5t27 111q0 102 -50 187.5t-135.5 135t-186.5 49.5v0zM488.5 570q38.5 0 66 -27.5t27.5 -65.5t-27.5 -65.5t-66 -27.5t-65.5 27.5t-27 65.5t27 65.5t65.5 27.5zM489 640q-68 0 -115.5 -47.5t-47.5 -115.5t47.5 -115.5
t115.5 -47.5t115.5 47.5t47.5 115.5t-47.5 115.5t-115.5 47.5v0z" />
    <glyph glyph-name="tanhao" unicode="&#xe60a;" 
d="M512 831q-91 0 -174 -35.5t-142.5 -95t-95 -142.5t-35.5 -174t35.5 -174t95 -142.5t142.5 -95t174 -35.5t174 35.5t142.5 95t95 142.5t35.5 174t-35.5 174t-95 142.5t-142.5 95t-174 35.5zM464 684q0 21 15 35.5t35.5 14.5t35.5 -14.5t15 -35.5q2 -453 -50 -453
q-26 0 -38.5 113t-12.5 227v113zM521 40q-23 0 -39.5 16.5t-16.5 39.5t16.5 39.5t39.5 16.5t39.5 -16.5t16.5 -39.5t-16.5 -39.5t-39.5 -16.5z" />
    <glyph glyph-name="wode-copy" unicode="&#xe605;" 
d="M691 450q0 -74 -52.5 -126.5t-126.5 -52.5t-126.5 52.5t-52.5 126.5t52.5 126.5t126.5 52.5t126.5 -52.5t52.5 -126.5zM839 64q0 -46 -45 -78t-117 -46t-165 -14t-165 14t-117 46t-45 78q0 47 44 87t119 63.5t164 23.5t164 -23.5t119 -63.5t44 -87z" />
    <glyph glyph-name="radio_true_disable" unicode="&#xe61d;" 
d="M512 864q-98 0 -186.5 -38t-153 -102.5t-102.5 -153t-38 -186.5t38 -186.5t102.5 -153t153 -102.5t186.5 -38t186.5 38t153 102.5t102.5 153t38 186.5t-38 186.5t-102.5 153t-153 102.5t-186.5 38zM512 18q-99 0 -183.5 49t-133.5 133.5t-49 183.5t49 183.5t133.5 133.5
t183.5 49t183.5 -49t133.5 -133.5t49 -183.5t-49 -183.5t-133.5 -133.5t-183.5 -49zM737 574q-18 17 -42.5 15.5t-41.5 -19.5l-219 -238l-96 77q-20 16 -46 14t-43 -20t-15.5 -41.5t21.5 -39.5l172 -138q10 -8 22.5 -7t20.5 10l271 302q16 18 15 43t-19 42z" />
    <glyph glyph-name="dizhiguanli" unicode="&#xe61e;" 
d="M8 896v0v0zM888 482q26 0 44 -17.5t18 -43.5v-425q0 -24 -18 -42t-44 -18h-707q-12 0 -23.5 4.5t-19.5 13t-12.5 19.5t-4.5 23v425q0 26 17 43.5t43 17.5h60q23 -33 58 -84.5t107 -145t98 -112.5q21 -14 31.5 -14.5t29.5 14.5q25 21 91 107q66 85 120 160l52 75h60v0z
M564 218q-3 -4 -6 -7q-3 -2 -7 -6q-4 -3 -8 -4.5t-8 -1.5q-14 0 -29 18q-11 16 -44 56q-33 42 -55 71q-24 31 -50.5 71t-40 75.5t-13.5 63.5q0 95 68 163t164 68q62 0 116 -31t85 -84.5t31 -115.5q0 -29 -14 -64t-41 -75q-26 -39 -49 -71q-22 -30 -55 -71q-32 -39 -44 -55v0
v0zM535 708q-62 0 -105.5 -43.5t-43.5 -105.5t43.5 -105.5t105.5 -43.5q40 0 74 20t54 54t20 75q0 30 -11.5 57.5t-31.5 47.5t-47.5 32t-57.5 12v0z" />
    <glyph glyph-name="dingwei1" unicode="&#xe61b;" 
d="M538 615q0 -11 -7.5 -18.5t-18.5 -7.5t-18.5 7.5t-7.5 18.5v255q1 11 8.5 18.5t17.5 7.5t17.5 -7.5t8.5 -18.5v-255zM538 -102q0 -11 -7.5 -18.5t-18.5 -7.5t-18.5 7.5t-7.5 18.5v255v0q0 11 7.5 18.5t18.5 7.5v0v0q11 0 18.5 -7.5t7.5 -18.5v0v-255zM743 410
q-11 0 -18.5 -7.5t-7.5 -18.5t7.5 -18.5t18.5 -7.5h255q11 0 18.5 7.5t7.5 18.5t-7.5 18.5t-18.5 7.5h-255zM26 410q-11 0 -18.5 -7.5t-7.5 -18.5t7.5 -18.5t18.5 -7.5h255q11 0 18.5 7.5t7.5 18.5t-7.5 18.5t-18.5 7.5h-255zM563 384q0 -21 -15 -36t-36 -15t-36 15t-15 36
t15 36t36 15v0q21 0 36 -15t15 -36v0zM512 790q-110 0 -204 -54t-148 -147.5t-54 -204t54 -204t147.5 -148t204.5 -54.5q109 0 202 53.5t147.5 145t56.5 200.5v0v7q0 110 -54 203.5t-147.5 148t-204.5 54.5zM872 384q0 -73 -28 -139t-78 -115.5t-115.5 -77.5t-139 -28
t-139 27.5t-115.5 77.5t-78 116t-28 139.5t28 139t78 115.5t115.5 77.5t139 27.5t139.5 -27.5t116 -77.5q102 -104 105 -248v-7z" />
  </font>
</defs>
</svg>
